<svg width="24" height="24" viewBox="0 0 24 24" fill="none" xmlns="http://www.w3.org/2000/svg">
<path d="M22.6267 4.63186C21.397 3.63867 17.0603 2.85938 12 2.85938C6.9397 2.85938 2.60302 3.63867 1.3733 4.63186C0.243188 5.54297 0 9.66211 0 12C0 14.3379 0.243188 18.457 1.3733 19.3682C2.60302 20.3613 6.9397 21.1406 12 21.1406C17.0603 21.1406 21.397 20.3613 22.6267 19.3681C23.7569 18.457 24 14.3379 24 12C24 9.66211 23.7569 5.54297 22.6267 4.63186ZM15.6006 12.1128L10.0298 15.438C9.98878 15.4614 9.93895 15.4629 9.89794 15.4395C9.85692 15.416 9.83128 15.372 9.83128 15.3252V12V8.67478C9.83128 8.62716 9.85692 8.58394 9.89794 8.5605C9.93895 8.53706 9.98878 8.53852 10.0298 8.56195L15.6006 11.8872C15.6402 11.9106 15.6643 11.9531 15.6643 12C15.6643 12.0454 15.6401 12.0893 15.6006 12.1128Z" fill="#4B4B4B"/>
</svg>
